<svg width="167" height="51" viewBox="0 0 167 51" fill="none" xmlns="http://www.w3.org/2000/svg">
<rect width="167" height="51" rx="25.5" fill="#318162"/>
<rect x="0.5" y="0.5" width="166" height="50" rx="25" stroke="#DBE0CC" stroke-opacity="0.01"/>
<path d="M28.9 34.1C30.4 35 32.2 35.5 34 35.5C39.5 35.5 44 31 44 25.5C44 20 39.5 15.5 34 15.5C28.5 15.5 24 20 24 25.5C24 27.3 24.5 29 25.3 30.5L24.4404 33.806C24.2457 34.5549 24.9389 35.2317 25.683 35.0191L28.9 34.1Z" stroke="white" stroke-width="1.5" stroke-miterlimit="10" stroke-linecap="round" stroke-linejoin="round"/>
<path d="M38.5 28.3485C38.5 28.5105 38.4639 28.677 38.3873 28.839C38.3107 29.001 38.2116 29.154 38.0809 29.298C37.86 29.541 37.6167 29.7165 37.3418 29.829C37.0714 29.9415 36.7784 30 36.4629 30C36.0033 30 35.512 29.892 34.9937 29.6715C34.4755 29.451 33.9572 29.154 33.4434 28.7805C32.9251 28.4025 32.4339 27.984 31.9652 27.5205C31.501 27.0525 31.0819 26.562 30.7078 26.049C30.3383 25.536 30.0408 25.023 29.8245 24.5145C29.6082 24.0015 29.5 23.511 29.5 23.043C29.5 22.737 29.5541 22.4445 29.6622 22.1745C29.7704 21.9 29.9417 21.648 30.1805 21.423C30.469 21.1395 30.7844 21 31.1179 21C31.2441 21 31.3703 21.027 31.483 21.081C31.6002 21.135 31.7038 21.216 31.7849 21.333L32.8305 22.8045C32.9116 22.917 32.9702 23.0205 33.0108 23.1195C33.0513 23.214 33.0739 23.3085 33.0739 23.394C33.0739 23.502 33.0423 23.61 32.9792 23.7135C32.9206 23.817 32.835 23.925 32.7268 24.033L32.3843 24.3885C32.3348 24.438 32.3122 24.4965 32.3122 24.5685C32.3122 24.6045 32.3167 24.636 32.3257 24.672C32.3393 24.708 32.3528 24.735 32.3618 24.762C32.4429 24.9105 32.5826 25.104 32.7809 25.338C32.9837 25.572 33.2 25.8105 33.4344 26.049C33.6778 26.2875 33.9121 26.508 34.151 26.7105C34.3853 26.9085 34.5791 27.0435 34.7323 27.1245C34.7549 27.1335 34.7819 27.147 34.8135 27.1605C34.8495 27.174 34.8856 27.1785 34.9261 27.1785C35.0028 27.1785 35.0613 27.1515 35.1109 27.102L35.4534 26.7645C35.5661 26.652 35.6743 26.5665 35.7779 26.5125C35.8816 26.4495 35.9852 26.418 36.0979 26.418C36.1835 26.418 36.2737 26.436 36.3728 26.4765C36.472 26.517 36.5756 26.5755 36.6883 26.652L38.18 27.7095C38.2972 27.7905 38.3783 27.885 38.4279 27.9975C38.473 28.11 38.5 28.2225 38.5 28.3485Z" stroke="white" stroke-width="1.5" stroke-miterlimit="10"/>
<path d="M64.046 25.574C64.718 25.694 65.288 26.048 65.756 26.636C66.224 27.224 66.458 27.89 66.458 28.634C66.458 29.27 66.29 29.846 65.954 30.362C65.63 30.866 65.156 31.268 64.532 31.568C63.908 31.856 63.182 32 62.354 32H57.35V19.49H62.12C62.972 19.49 63.704 19.634 64.316 19.922C64.928 20.21 65.39 20.6 65.702 21.092C66.014 21.572 66.17 22.112 66.17 22.712C66.17 23.432 65.978 24.032 65.594 24.512C65.21 24.992 64.694 25.346 64.046 25.574ZM59.402 24.746H61.94C62.612 24.746 63.134 24.596 63.506 24.296C63.89 23.984 64.082 23.54 64.082 22.964C64.082 22.4 63.89 21.962 63.506 21.65C63.134 21.326 62.612 21.164 61.94 21.164H59.402V24.746ZM62.174 30.326C62.87 30.326 63.416 30.158 63.812 29.822C64.208 29.486 64.406 29.018 64.406 28.418C64.406 27.806 64.196 27.32 63.776 26.96C63.356 26.6 62.798 26.42 62.102 26.42H59.402V30.326H62.174ZM72.9899 32.162C72.0539 32.162 71.2079 31.952 70.4519 31.532C69.6959 31.1 69.1019 30.5 68.6699 29.732C68.2379 28.952 68.0219 28.052 68.0219 27.032C68.0219 26.024 68.2439 25.13 68.6879 24.35C69.1319 23.57 69.7379 22.97 70.5059 22.55C71.2739 22.13 72.1319 21.92 73.0799 21.92C74.0279 21.92 74.8859 22.13 75.6539 22.55C76.4219 22.97 77.0279 23.57 77.4719 24.35C77.9159 25.13 78.1379 26.024 78.1379 27.032C78.1379 28.04 77.9099 28.934 77.4539 29.714C76.9979 30.494 76.3739 31.1 75.5819 31.532C74.8019 31.952 73.9379 32.162 72.9899 32.162ZM72.9899 30.38C73.5179 30.38 74.0099 30.254 74.4659 30.002C74.9339 29.75 75.3119 29.372 75.5999 28.868C75.8879 28.364 76.0319 27.752 76.0319 27.032C76.0319 26.312 75.8939 25.706 75.6179 25.214C75.3419 24.71 74.9759 24.332 74.5199 24.08C74.0639 23.828 73.5719 23.702 73.0439 23.702C72.5159 23.702 72.0239 23.828 71.5679 24.08C71.1239 24.332 70.7699 24.71 70.5059 25.214C70.2419 25.706 70.1099 26.312 70.1099 27.032C70.1099 28.1 70.3799 28.928 70.9199 29.516C71.4719 30.092 72.1619 30.38 72.9899 30.38ZM84.4684 32.162C83.5324 32.162 82.6864 31.952 81.9304 31.532C81.1744 31.1 80.5804 30.5 80.1484 29.732C79.7164 28.952 79.5004 28.052 79.5004 27.032C79.5004 26.024 79.7224 25.13 80.1664 24.35C80.6104 23.57 81.2164 22.97 81.9844 22.55C82.7524 22.13 83.6104 21.92 84.5584 21.92C85.5064 21.92 86.3644 22.13 87.1324 22.55C87.9004 22.97 88.5064 23.57 88.9504 24.35C89.3944 25.13 89.6164 26.024 89.6164 27.032C89.6164 28.04 89.3884 28.934 88.9324 29.714C88.4764 30.494 87.8524 31.1 87.0604 31.532C86.2804 31.952 85.4164 32.162 84.4684 32.162ZM84.4684 30.38C84.9964 30.38 85.4884 30.254 85.9444 30.002C86.4124 29.75 86.7904 29.372 87.0784 28.868C87.3664 28.364 87.5104 27.752 87.5104 27.032C87.5104 26.312 87.3724 25.706 87.0964 25.214C86.8204 24.71 86.4544 24.332 85.9984 24.08C85.5424 23.828 85.0504 23.702 84.5224 23.702C83.9944 23.702 83.5024 23.828 83.0464 24.08C82.6024 24.332 82.2484 24.71 81.9844 25.214C81.7204 25.706 81.5884 26.312 81.5884 27.032C81.5884 28.1 81.8584 28.928 82.3984 29.516C82.9504 30.092 83.6404 30.38 84.4684 30.38ZM95.5689 27.05L100.141 32H97.3689L93.6969 27.734V32H91.6449V18.68H93.6969V26.42L97.2969 22.082H100.141L95.5689 27.05ZM116.566 32H114.514L108.34 22.658V32H106.288V19.472H108.34L114.514 28.796V19.472H116.566V32ZM123.562 32.162C122.626 32.162 121.78 31.952 121.024 31.532C120.268 31.1 119.674 30.5 119.242 29.732C118.81 28.952 118.594 28.052 118.594 27.032C118.594 26.024 118.816 25.13 119.26 24.35C119.704 23.57 120.31 22.97 121.078 22.55C121.846 22.13 122.704 21.92 123.652 21.92C124.6 21.92 125.458 22.13 126.226 22.55C126.994 22.97 127.6 23.57 128.044 24.35C128.488 25.13 128.71 26.024 128.71 27.032C128.71 28.04 128.482 28.934 128.026 29.714C127.57 30.494 126.946 31.1 126.154 31.532C125.374 31.952 124.51 32.162 123.562 32.162ZM123.562 30.38C124.09 30.38 124.582 30.254 125.038 30.002C125.506 29.75 125.884 29.372 126.172 28.868C126.46 28.364 126.604 27.752 126.604 27.032C126.604 26.312 126.466 25.706 126.19 25.214C125.914 24.71 125.548 24.332 125.092 24.08C124.636 23.828 124.144 23.702 123.616 23.702C123.088 23.702 122.596 23.828 122.14 24.08C121.696 24.332 121.342 24.71 121.078 25.214C120.814 25.706 120.682 26.312 120.682 27.032C120.682 28.1 120.952 28.928 121.492 29.516C122.044 30.092 122.734 30.38 123.562 30.38ZM144.059 22.082L140.981 32H138.821L136.823 24.674L134.825 32H132.665L129.569 22.082H131.657L133.727 30.056L135.833 22.082H137.975L139.991 30.02L142.043 22.082H144.059Z" fill="white"/>
</svg>
