<svg width="73" height="82" viewBox="0 0 73 82" fill="none" xmlns="http://www.w3.org/2000/svg">
<path d="M62.4548 32.9986C59.7349 34.7631 57.3233 36.7202 54.6026 38.0169C51.6071 39.5049 48.4147 40.5579 45.1218 41.1441C43.432 41.4318 41.6963 41.0581 40.2747 40.1004C38.8531 39.1427 37.8546 37.6745 37.4865 36.0003C36.5119 32.3747 38.0734 29.1448 41.7933 27.4077C46.5978 25.1508 51.6956 25.0562 56.8539 25.7999C58.1199 25.9868 59.3555 26.2793 60.5377 26.5045C66.54 21.0172 66.3696 18.1732 59.0846 1.60689C61.5492 -0.0647321 63.2031 1.37655 64.6987 3.1153C69.6979 8.93587 70.9327 19.8682 67.3925 26.6236C67.0294 27.3091 66.6402 27.9766 66.1878 28.7922C66.9481 29.582 67.6303 30.2455 68.2508 30.9433C72.6748 36.0895 73.4903 42.6204 69.7005 48.2548C67.4145 51.5174 64.6576 54.4234 61.5196 56.8778C56.2214 61.1438 49.9773 63.8186 43.4957 65.7289C35.6718 68.0435 27.7277 69.9806 19.8479 72.0921C18.7143 72.4211 17.497 72.7885 15.9764 73.235C17.9901 74.7225 19.9218 76.3178 21.7631 78.014C22.3809 78.6486 22.7899 80.5533 22.4273 80.8752C21.6348 81.5723 20.2752 81.6391 19.1322 81.8927C18.8783 81.9445 18.5508 81.6738 18.2574 81.5376C13.6195 79.4159 9.01317 77.2202 4.33805 75.1918C0.207219 73.4028 -0.330465 72.3444 1.4379 68.2492C3.53146 63.7153 6.82876 59.8428 10.9708 57.0531C12.2836 56.1001 13.7977 55.3504 15.3217 57.3883C14.3595 61.8605 9.64451 63.9145 7.44207 68.4357C9.18598 68.1884 10.3905 68.1188 11.5419 67.8364C21.4799 65.3601 31.4999 63.1774 41.3069 60.2167C46.6362 58.4998 51.76 56.201 56.5859 53.362C59.6068 51.5545 62.2592 49.1928 64.4037 46.4011C68.0001 41.8022 67.1955 37.259 62.4548 32.9986ZM55.4367 31.9286L55.0694 30.7113C52.0078 30.0307 48.8229 30.1463 45.8188 31.0471C42.9903 31.8869 41.7251 33.2172 42.4323 34.6984C43.4418 36.8274 45.3794 36.376 46.9688 35.7623C49.8744 34.6537 52.6118 33.2266 55.4367 31.9286Z" fill="url(#paint0_linear_162_1116)"/>
<defs>
<linearGradient id="paint0_linear_162_1116" x1="20.7052" y1="71.0257" x2="104.136" y2="-7.14111" gradientUnits="userSpaceOnUse">
<stop stop-color="#FF8441"/>
<stop offset="1" stop-color="#FF8441" stop-opacity="0"/>
</linearGradient>
</defs>
</svg>
