<svg width="46" height="44" viewBox="0 0 46 44" fill="none" xmlns="http://www.w3.org/2000/svg">
<path d="M38.0893 22.835C36.4342 23.2203 34.8856 23.823 33.3269 23.8968C31.5984 24.0181 29.8663 23.7929 28.1831 23.228C27.322 22.9294 26.5759 22.1773 26.0996 21.1278C25.6232 20.0782 25.4532 18.8118 25.6247 17.5911C25.912 14.896 27.3205 13.1998 29.4443 13.1228C32.19 13.0144 34.6277 14.43 36.9209 16.4208C37.4827 16.9123 38.0084 17.4653 38.5226 17.958C42.5044 16.0477 43.0116 14.1059 42.9811 0.970291C44.4959 0.572831 44.9824 2.01146 45.3323 3.60215C46.5003 8.92486 44.8257 16.5571 41.7496 20.0253C41.4356 20.376 41.113 20.7073 40.7298 21.1188C40.9271 21.8648 41.1136 22.5042 41.2637 23.1484C42.2982 27.8556 41.3347 32.4376 38.372 35.0875C36.613 36.5954 34.7044 37.7294 32.7084 38.4525C29.3131 39.7544 25.7982 39.7232 22.3286 39.1145C18.1387 38.3855 13.9698 37.3705 9.79535 36.4901C9.18959 36.3803 8.5362 36.2717 7.72258 36.1278C8.37024 37.7015 8.95671 39.3233 9.47943 40.9859C9.64129 41.5874 9.44147 42.9733 9.20292 43.0823C8.68285 43.3163 8.02413 42.9664 7.42947 42.8037C7.29834 42.7645 7.19896 42.4894 7.08795 42.3137C5.32656 39.5569 3.5955 36.76 1.79721 34.0545C0.207595 31.6661 0.171373 30.806 1.85693 28.594C3.78745 26.1844 6.15224 24.564 8.69385 23.9091C9.5136 23.6557 10.3869 23.596 10.6885 25.3939C9.30735 28.0905 6.64606 28.0898 4.6665 30.4594C5.54488 30.8006 6.13067 31.1036 6.73521 31.2496C11.9614 32.4841 17.1658 33.9378 22.43 34.812C25.313 35.2152 28.2188 35.1717 31.095 34.6823C32.9017 34.3557 34.6482 33.5535 36.2427 32.3179C38.8995 30.3009 39.4572 27.0447 38.0893 22.835ZM34.9814 20.0877L35.0589 19.1712C33.7473 17.8304 32.2126 16.9837 30.6013 16.7118C29.086 16.4503 28.2107 16.9685 28.24 18.1591C28.2786 19.8685 29.2911 20.1301 30.1719 20.1827C31.7795 20.2877 33.373 20.1321 34.9814 20.0877Z" fill="url(#paint0_linear_162_1438)"/>
<defs>
<linearGradient id="paint0_linear_162_1438" x1="10.4225" y1="36.0292" x2="69.4199" y2="21.066" gradientUnits="userSpaceOnUse">
<stop stop-color="#FF8441"/>
<stop offset="1" stop-color="#FF8441" stop-opacity="0"/>
</linearGradient>
</defs>
</svg>
